<?xml version="1.0" standalone="no"?>
<!DOCTYPE svg PUBLIC "-//W3C//DTD SVG 20010904//EN"
 "http://www.w3.org/TR/2001/REC-SVG-20010904/DTD/svg10.dtd">
<svg version="1.0" xmlns="http://www.w3.org/2000/svg"
 width="260.000000pt" height="260.000000pt" viewBox="0 0 260.000000 260.000000"
 preserveAspectRatio="xMidYMid meet">
<metadata>
Created by potrace 1.14, written by Peter Selinger 2001-2017
</metadata>
<g transform="translate(0.000000,260.000000) scale(0.100000,-0.100000)"
fill="#000000" stroke="none">
<path d="M1155 2413 c-482 -44 -890 -410 -988 -888 -8 -38 -13 -71 -12 -73 2
-2 25 8 51 21 27 14 83 40 124 58 41 18 79 36 83 40 5 4 3 32 -4 62 -11 50
-10 59 5 83 14 20 24 25 46 22 25 -4 29 -1 33 26 21 122 36 146 89 146 23 0
31 7 43 37 9 21 22 44 30 53 7 8 15 40 17 70 3 48 6 56 30 68 22 10 33 10 60
-1 32 -14 86 -66 119 -117 16 -24 17 -23 12 41 -5 58 -3 69 16 88 60 60 160
-19 246 -195 40 -80 43 -84 49 -57 11 45 53 103 133 181 70 70 75 73 96 60 12
-8 44 -44 71 -79 27 -35 57 -65 67 -67 10 -2 28 -15 40 -30 16 -21 20 -38 17
-79 -2 -43 0 -52 12 -48 26 8 73 -10 92 -36 17 -23 17 -28 4 -66 -14 -40 -14
-42 4 -48 21 -7 80 -73 80 -90 0 -6 29 -41 65 -77 43 -43 67 -76 71 -97 4 -18
14 -35 23 -39 26 -9 31 -24 25 -69 l-6 -42 36 6 c32 5 37 3 57 -31 14 -24 28
-36 43 -36 13 0 31 -9 41 -20 10 -11 24 -20 31 -20 12 0 74 -65 74 -78 0 -5
15 -16 34 -25 43 -20 43 -20 58 125 14 125 2 273 -32 403 -29 114 -126 304
-205 402 -235 293 -604 450 -980 416z"/>
<path d="M947 2113 c-13 -12 -7 -55 25 -178 17 -67 28 -130 25 -139 -8 -19
-60 -22 -74 -3 -5 6 -15 32 -22 57 -20 70 -80 177 -118 210 -52 46 -61 41 -65
-42 -4 -88 9 -119 82 -207 49 -59 51 -64 35 -79 -16 -16 -20 -13 -67 38 -27
30 -61 75 -76 99 -21 36 -27 41 -32 26 -5 -13 10 -41 47 -93 29 -41 53 -80 53
-87 0 -11 -20 -25 -36 -25 -2 0 -25 33 -53 73 -56 83 -75 102 -96 93 -22 -8
-20 -13 34 -106 46 -79 48 -86 33 -100 -9 -9 -22 -25 -28 -35 -6 -11 -26 -24
-44 -29 -36 -11 -44 -4 -84 65 -19 33 -20 33 -24 10 -2 -13 4 -44 13 -68 10
-24 16 -45 14 -47 -2 -1 -42 -19 -89 -40 -131 -58 -232 -107 -228 -111 2 -2
43 1 93 7 86 9 450 3 480 -8 8 -3 19 -21 25 -40 7 -19 23 -48 37 -65 23 -26
27 -43 34 -142 11 -155 73 -383 113 -416 16 -13 56 -6 56 10 0 5 11 9 24 9 13
0 29 6 35 14 9 10 3 21 -26 50 l-38 37 1 122 c1 140 11 177 49 177 18 0 32
-11 51 -40 32 -48 61 -68 139 -95 39 -14 61 -27 63 -39 2 -10 -8 -44 -22 -76
-14 -32 -26 -65 -26 -73 0 -22 95 -134 120 -142 12 -4 34 -2 49 5 20 8 44 9
77 3 l49 -9 0 55 c0 53 -1 56 -27 59 -16 2 -42 -7 -67 -23 -42 -28 -74 -28
-85 1 -17 44 89 147 132 128 10 -4 87 -8 172 -9 l155 -1 72 -50 c52 -37 90
-55 144 -68 40 -9 82 -24 93 -32 11 -8 25 -14 31 -14 16 0 49 62 49 93 1 42
-24 51 -88 33 -30 -9 -68 -16 -86 -16 -65 0 -91 38 -50 75 17 15 41 18 161 20
150 2 159 5 159 52 0 16 -11 28 -34 40 -19 10 -45 34 -58 53 -18 26 -32 36
-56 38 -25 3 -32 8 -32 24 0 16 -5 19 -25 16 -29 -6 -52 9 -57 36 -6 35 -26
28 -40 -15 -19 -56 -38 -68 -72 -46 -30 20 -32 40 -11 90 8 20 15 52 15 71 0
29 -3 34 -17 29 -10 -3 -32 -21 -49 -40 -18 -18 -36 -33 -42 -33 -17 0 -42 42
-42 70 0 26 43 76 85 98 18 10 16 13 -26 56 -50 50 -74 56 -120 29 -26 -16
-29 -16 -47 0 -10 9 -26 17 -35 17 -9 0 -17 4 -17 8 0 12 20 124 26 143 6 23
-51 79 -81 79 -17 0 -27 -9 -39 -40 -9 -22 -16 -47 -16 -55 0 -9 -10 -15 -25
-15 -29 0 -31 13 -14 75 6 22 26 54 44 71 22 20 35 44 40 72 9 55 0 78 -33 85
-21 4 -38 21 -65 65 -20 32 -42 64 -49 70 -20 16 -150 -131 -173 -194 -25 -73
-30 -79 -60 -79 -15 0 -31 7 -35 15 -4 8 -29 59 -55 113 -57 121 -132 206
-158 180z"/>
<path d="M1660 1776 c0 -2 7 -9 15 -16 12 -10 15 -10 15 4 0 9 -7 16 -15 16
-8 0 -15 -2 -15 -4z"/>
<path d="M540 1747 c0 -15 29 -64 46 -78 14 -11 13 -5 -6 26 -26 45 -40 63
-40 52z"/>
<path d="M1703 1590 c-6 -28 -8 -50 -6 -50 4 0 66 30 71 35 7 6 -19 45 -37 54
-16 9 -20 5 -28 -39z"/>
<path d="M185 1341 l-40 -6 3 -90 c19 -499 382 -930 872 -1035 418 -90 847 60
1110 387 l62 76 -34 12 c-18 7 -46 18 -63 24 -16 6 -56 18 -87 27 -32 8 -86
35 -120 58 -57 39 -70 43 -140 49 -42 3 -95 3 -117 0 -40 -5 -41 -7 -25 -24
12 -13 15 -28 10 -56 -3 -21 -6 -52 -6 -70 1 -34 -22 -63 -48 -63 -9 0 -35 5
-57 10 -27 6 -50 6 -71 -2 -50 -18 -84 -2 -151 69 -83 87 -88 114 -38 235 5
13 0 19 -22 24 -42 10 -108 50 -136 83 l-24 30 -7 -46 c-3 -25 -6 -69 -6 -98
0 -47 4 -56 40 -93 59 -60 53 -99 -21 -140 -91 -50 -145 -37 -184 42 -39 80
-95 314 -95 399 0 44 -6 82 -15 97 -8 14 -24 44 -37 68 l-22 42 -245 -1 c-136
-1 -264 -5 -286 -8z"/>
<path d="M2274 874 c3 -9 6 -19 6 -22 0 -9 20 21 20 31 0 4 -7 7 -16 7 -11 0
-14 -5 -10 -16z"/>
</g>
</svg>
