<?xml version="1.0" encoding="utf-8"?>
<!-- Generator: Adobe Illustrator 28.0.0, SVG Export Plug-In . SVG Version: 6.00 Build 0)  -->
<svg version="1.1" id="Layer_1" xmlns="http://www.w3.org/2000/svg" xmlns:xlink="http://www.w3.org/1999/xlink" x="0px" y="0px"
	 viewBox="0 0 2500 764" style="enable-background:new 0 0 2500 764;" xml:space="preserve">
<style type="text/css">
	.st0{fill:#FFFFFF;}
</style>
<path class="st0" d="M2425.5,324.9h2.5c2.1,0,4.2-0.8,4.2-2.9s-1.3-2.9-4.2-2.9c-0.7-0.1-1.4-0.1-2.1,0L2425.5,324.9z M2425.5,334.9
	h-4.2v-18.4c2.5-0.4,5-0.5,7.5-0.4c2.2-0.2,4.4,0.2,6.3,1.3c1.2,1.1,1.8,2.6,1.7,4.2c-0.2,2.1-1.7,3.8-3.8,4.2
	c2,0.7,3.3,2.5,3.3,4.6c0.2,1.5,0.6,2.9,1.3,4.2h-4.6c-0.8-1.3-1.4-2.7-1.7-4.2c0-1.7-1.3-2.5-3.8-2.5h-2.1L2425.5,334.9z
	 M2428.9,310.7c-8.1,0-14.6,6.6-14.6,14.6s6.6,14.6,14.6,14.6c7.9,0,14.2-6.4,14.2-14.2c0-0.1,0-0.3,0-0.4
	c0.2-7.9-5.9-14.4-13.8-14.6C2429.2,310.7,2429,310.7,2428.9,310.7L2428.9,310.7z M2428.9,306.9c10.2,0.2,18.2,8.7,18,18.8
	c-0.2,10.2-8.7,18.2-18.8,18c-10-0.2-18-8.4-18-18.4C2410.3,315.1,2418.6,306.9,2428.9,306.9z M2369.5,385.6
	c-12.6-41.4-105.8-21.8-84.9,28.4c15.5,37.7,105.4,60.2,148.5,122.2c66.9,98.7-81.2,209.2-192.9,156.5c-79.1-37.2-79.5-95-74-118.4
	c7.5-35.1,46.9-36,51.5-17.2c7.1,33.9-8.4,32.2-7.5,46c6.3,56.5,97.5,80.3,146,31.8c65.7-66.9,8.4-110.4-3.8-118.8
	c-31-22.2-73.6-28-100.8-64.8c-58.6-79.5,32.2-148.9,98.7-129.3c30.1,9.2,54.4,31.4,48.5,60.2c-4.6,23.8-23.8,21.8-29.3,3.8
	 M1637.4,432c-4.2-8.8-5-6.3-11.7-14.2c-43.5-44.8-87.9-7.1-116.3,28c-47.7,53.1-104.2,239.3-42.7,205.8
	c64-31.4,117.1-140.6,144.3-181.6c26.8-38.9,71.5-20.9,64.8,23.8c-2.9,17.6-14.6,80.3-7.1,120.5c7.5,41,52.3-19.7,66.1-36
	c0.4-10.5-17.6-83.7,28.4-169c67.8-125.1,200.8-85.8,166.9,23.4c-15,52.1-53.8,94-104.6,113c-20.1,7.1-33.5-14.2-12.6-31.4
	c15.9-12.6,34.7-19.7,60.2-66.9c19.2-36-2.5-65.3-37.7-40.2c-51,36.8-75.7,203.3,2.1,252.3c74,38.5,131.8-38.5,184.1-133.9
	c-27.2-109.6-21.3-303.7,55.6-402.4c80.3-104.6,193.3-63.2,194.9,13.8c3.3,128.4-122.2,318.8-135.5,349.3
	c-8.8,20.1-38.5,11.7-24.3-18.4c96.2-172.8,101.7-304.1,98.3-333.4c-6.3-54.4-50.2-41.8-92,4.6c-97.9,137.2-54.4,341.4-23,458.1
	c10.9,41.4,25.1,71.1,24.3,83.7c-2.5,40.2-34.7,34.7-50.6,4.2c-5.4-10.9-15.1-33.5-31.4-91.2c-77.8,123-183.2,131.4-242.2,90.8
	c-20.7-15.5-37.6-35.5-49.4-58.6c-81.2,77.4-149.3,25.1-151.4-54.8c-9.6,11.3-53.5,79.1-116.3,115.9
	c-51.5,30.1-96.2,12.6-100.4-36.8c-5-91.6,84.5-217.5,115.5-251.4c33.5-36.8,68.6-61.5,112.1-60.2c45.6,1.7,66.1,60.2,59.4,83.7
	c-5.4,20.9-23.4,18.4-28,9.2 M782.3,248.8c30.5-2.5,43.9,12.6,43.5,34.3c-0.8,21.8-24.7,46.9-39.3,52.3c-15.1,6.1-32.4,0.5-41-13.4
	c-13-24.5-3.7-54.9,20.7-67.9C771.2,251.4,776.7,249.6,782.3,248.8 M713.3,375.9c15.2-13.8,38.8-12.7,52.6,2.6
	c8.4,9.3,11.6,22.1,8.5,34.2c-2.5,11.3-0.8,6.3-16.3,48.9s-30.5,102.1-28.9,159c5.9,89.1,43.5,51,49.4,46.9
	c5.9-4.2,30.5-30.5,40.6-93.3c7.5-47.7,36.4-161.1,133.5-208.8c66.5-32.6,114.2,2.5,115.5,46c1.3,41.8-44.8,33-56.9,18.8
	c-8.4-9.6-18-27.6-37.7-19.2c-36.8,15.1-86.2,94.1-84.5,182.4s82.4,71.1,130.5,34.7s79.5-120.1,82.4-140.1
	c6.7-117.1,85.8-366.9,123.4-407c40.6-43.9,77.8-1.7,68.6,15.5c-58.6,143.1-147.7,310.8-148.5,479.4
	c36.4-106.3,106.7-189.9,179-200.8c66.9-9.6,78.2,37.7,62.8,77.8s-45.6,87-38.5,183.2c1.7,22.6,7.1,60.2-5.4,68.6
	c-30.5,19.2-45.2-19.2-46-64.8c-0.8-43.9,28-143.1,32.2-159.4c16.7-66.9-45.2-41.8-63.2-22.6c-69.9,72-98.3,193.7-105.8,217.5
	c-9.2,28-45.2,15.1-52.3-17.6c-0.8-4.2-5-13-10-66.9c-77.8,112.5-224.6,154.4-266.5,62.8c-75.3,89.5-143.1,65.3-166.1-32.2
	c-23.8-117.1,31-231.3,47.7-245.1 M612.9,632.4c10.5,41,17.2,64,4.2,71.1c-23.8,13.8-55.2-47.7-62.3-96.2
	C530.5,439.9,579.4,295.2,594,235c28.4-117.1-37.7-172.4-118-4.2c-59.8,126.3-61.5,205-89.1,326.7c-20.9,90.8-87.9,85.8-98.3,21.3
	c-19.2-126.3-4.2-451-70.3-451c-62.8,0.4-76.1,327.1-71.1,509.5c2.1,60.7-19.2,66.5-33.5,66.9C67.8,706.4,77,437,32.6,369.7
	c-3.3-5-6.3-12.6-8.8-16.7C0,319.5,35.6,317.4,58.1,342.5c45.6,50.2,39.3,149.3,39.3,197.9C96.6,303.1,105,53.8,234.3,63.4
	c35.6,2.9,71.5,12.6,90.4,179c12.6,113,10.5,267.7,14.2,294.9c8.4-58.6,72-478.6,244.3-471.9c69.9,2.5,79.5,68.6,79.5,100.4
	c0,69-32.2,131.4-46.9,244.3c-8.4,62.8-16.7,169.8-3.3,221.7"/>
</svg>
